<?xml version="1.0" encoding="UTF-8"?>
<svg width="512" height="512" viewBox="0 0 512 512" fill="none" xmlns="http://www.w3.org/2000/svg">
  <rect width="512" height="512" rx="128" fill="#0F1014"/>
  <path d="M256 128C309 128 352 171 352 224V256H368C394.5 256 416 277.5 416 304V400C416 426.5 394.5 448 368 448H144C117.5 448 96 426.5 96 400V304C96 277.5 117.5 256 144 256H160V224C160 171 203 128 256 128ZM256 176C229.5 176 208 197.5 208 224V256H304V224C304 197.5 282.5 176 256 176Z" fill="#28F8BA"/>
</svg>
